<?xml version="1.0" encoding="UTF-8" standalone="no"?>
<!DOCTYPE svg PUBLIC "-//W3C//DTD SVG 1.1//EN"
 "http://www.w3.org/Graphics/SVG/1.1/DTD/svg11.dtd">
<!-- Generated by graphviz version 2.38.0 (20140413.2041)
 -->
<!-- Title: controllers_diagram Pages: 1 -->
<svg width="528pt" height="345pt"
 viewBox="0.00 0.00 527.71 345.25" xmlns="http://www.w3.org/2000/svg" xmlns:xlink="http://www.w3.org/1999/xlink">
<g id="graph0" class="graph" transform="scale(1 1) rotate(0) translate(172.026 221.5)">
<title>controllers_diagram</title>
<polygon fill="white" stroke="none" points="-172.026,123.752 -172.026,-221.5 355.688,-221.5 355.688,123.752 -172.026,123.752"/>
<!-- _diagram_info -->
<g id="node1" class="node"><title>_diagram_info</title>
<text text-anchor="start" x="152.312" y="-203.1" font-family="Times,serif" font-size="13.00">Controllers diagram</text>
<text text-anchor="start" x="152.312" y="-190.1" font-family="Times,serif" font-size="13.00">Date: Apr 26 2014 &#45; 12:32</text>
<text text-anchor="start" x="152.312" y="-177.1" font-family="Times,serif" font-size="13.00">Migration version: 20140404051215</text>
<text text-anchor="start" x="152.312" y="-164.1" font-family="Times,serif" font-size="13.00">Generated by RailRoady 1.1.1</text>
<text text-anchor="start" x="152.312" y="-151.1" font-family="Times,serif" font-size="13.00">http://railroady.prestonlee.com</text>
</g>
<!-- ApplicationController -->
<g id="node2" class="node"><title>ApplicationController</title>
<path fill="none" stroke="black" d="M-156.026,52.4435C-156.026,52.4435 17.9057,52.4435 17.9057,52.4435 23.9057,52.4435 29.9057,46.4435 29.9057,40.4435 29.9057,40.4435 29.9057,-25.5565 29.9057,-25.5565 29.9057,-31.5565 23.9057,-37.5565 17.9057,-37.5565 17.9057,-37.5565 -156.026,-37.5565 -156.026,-37.5565 -162.026,-37.5565 -168.026,-31.5565 -168.026,-25.5565 -168.026,-25.5565 -168.026,40.4435 -168.026,40.4435 -168.026,46.4435 -162.026,52.4435 -156.026,52.4435"/>
<text text-anchor="middle" x="-69.0601" y="-22.3565" font-family="Times,serif" font-size="14.00">ApplicationController</text>
<polyline fill="none" stroke="black" points="-168.026,-15.5565 29.9057,-15.5565 "/>
<polyline fill="none" stroke="black" points="-168.026,8.44355 29.9057,8.44355 "/>
<text text-anchor="start" x="-160.026" y="23.6435" font-family="Times,serif" font-size="14.00">configure_permitted_parameters</text>
<polyline fill="none" stroke="black" points="-168.026,30.4435 29.9057,30.4435 "/>
<text text-anchor="start" x="-160.026" y="45.6435" font-family="Times,serif" font-size="14.00">_layout</text>
</g>
<!-- TweetsController -->
<g id="node3" class="node"><title>TweetsController</title>
<path fill="none" stroke="black" d="M57.0943,119.252C57.0943,119.252 146.089,119.252 146.089,119.252 152.089,119.252 158.089,113.252 158.089,107.252 158.089,107.252 158.089,-84.7479 158.089,-84.7479 158.089,-90.7479 152.089,-96.7479 146.089,-96.7479 146.089,-96.7479 57.0943,-96.7479 57.0943,-96.7479 51.0943,-96.7479 45.0943,-90.7479 45.0943,-84.7479 45.0943,-84.7479 45.0943,107.252 45.0943,107.252 45.0943,113.252 51.0943,119.252 57.0943,119.252"/>
<text text-anchor="middle" x="101.592" y="-81.5479" font-family="Times,serif" font-size="14.00">TweetsController</text>
<polyline fill="none" stroke="black" points="45.0943,-74.7479 158.089,-74.7479 "/>
<text text-anchor="start" x="53.0943" y="-59.5479" font-family="Times,serif" font-size="14.00">create</text>
<text text-anchor="start" x="53.0943" y="-45.5479" font-family="Times,serif" font-size="14.00">destroy</text>
<text text-anchor="start" x="53.0943" y="-31.5479" font-family="Times,serif" font-size="14.00">edit</text>
<text text-anchor="start" x="53.0943" y="-17.5479" font-family="Times,serif" font-size="14.00">index</text>
<text text-anchor="start" x="53.0943" y="-3.54794" font-family="Times,serif" font-size="14.00">my_tweets</text>
<text text-anchor="start" x="53.0943" y="10.4521" font-family="Times,serif" font-size="14.00">new</text>
<text text-anchor="start" x="53.0943" y="24.4521" font-family="Times,serif" font-size="14.00">show</text>
<text text-anchor="start" x="53.0943" y="38.4521" font-family="Times,serif" font-size="14.00">update</text>
<polyline fill="none" stroke="black" points="45.0943,45.2521 158.089,45.2521 "/>
<polyline fill="none" stroke="black" points="45.0943,69.2521 158.089,69.2521 "/>
<text text-anchor="start" x="53.0943" y="84.4521" font-family="Times,serif" font-size="14.00">_layout</text>
<text text-anchor="start" x="53.0943" y="98.4521" font-family="Times,serif" font-size="14.00">set_tweet</text>
<text text-anchor="start" x="53.0943" y="112.452" font-family="Times,serif" font-size="14.00">tweet_params</text>
</g>
<!-- ApplicationController&#45;&gt;TweetsController -->
<g id="edge1" class="edge"><title>ApplicationController&#45;&gt;TweetsController</title>
<path fill="none" stroke="black" d="M30.2089,9.65897C35.1949,9.77025 40.1157,9.88007 44.9006,9.98685"/>
</g>
</g>
</svg>
