<?xml version="1.0" encoding="UTF-8" standalone="no"?>
<!DOCTYPE svg PUBLIC "-//W3C//DTD SVG 1.1//EN"
 "http://www.w3.org/Graphics/SVG/1.1/DTD/svg11.dtd">
<!-- Generated by graphviz version 2.38.0 (20140413.2041)
 -->
<!-- Title: models_diagram Pages: 1 -->
<svg width="482pt" height="495pt"
 viewBox="0.00 0.00 481.97 495.00" xmlns="http://www.w3.org/2000/svg" xmlns:xlink="http://www.w3.org/1999/xlink">
<g id="graph0" class="graph" transform="scale(1 1) rotate(0) translate(4 491)">
<title>models_diagram</title>
<polygon fill="white" stroke="none" points="-4,4 -4,-491 477.966,-491 477.966,4 -4,4"/>
<!-- _diagram_info -->
<g id="node1" class="node"><title>_diagram_info</title>
<text text-anchor="start" x="8" y="-472.6" font-family="Times,serif" font-size="13.00">Models diagram</text>
<text text-anchor="start" x="8" y="-459.6" font-family="Times,serif" font-size="13.00">Date: Apr 26 2014 &#45; 12:32</text>
<text text-anchor="start" x="8" y="-446.6" font-family="Times,serif" font-size="13.00">Migration version: 20140404051215</text>
<text text-anchor="start" x="8" y="-433.6" font-family="Times,serif" font-size="13.00">Generated by RailRoady 1.1.1</text>
<text text-anchor="start" x="8" y="-420.6" font-family="Times,serif" font-size="13.00">http://railroady.prestonlee.com</text>
</g>
<!-- Tweet -->
<g id="node2" class="node"><title>Tweet</title>
<path fill="none" stroke="black" d="M252.182,-0.5C252.182,-0.5 361.193,-0.5 361.193,-0.5 367.193,-0.5 373.193,-6.5 373.193,-12.5 373.193,-12.5 373.193,-88.5 373.193,-88.5 373.193,-94.5 367.193,-100.5 361.193,-100.5 361.193,-100.5 252.182,-100.5 252.182,-100.5 246.182,-100.5 240.182,-94.5 240.182,-88.5 240.182,-88.5 240.182,-12.5 240.182,-12.5 240.182,-6.5 246.182,-0.5 252.182,-0.5"/>
<text text-anchor="middle" x="306.688" y="-85.3" font-family="Times,serif" font-size="14.00">Tweet</text>
<polyline fill="none" stroke="black" points="240.182,-78.5 373.193,-78.5 "/>
<text text-anchor="start" x="248.182" y="-63.3" font-family="Times,serif" font-size="14.00">id :integer</text>
<text text-anchor="start" x="248.182" y="-49.3" font-family="Times,serif" font-size="14.00">contents :text</text>
<text text-anchor="start" x="248.182" y="-35.3" font-family="Times,serif" font-size="14.00">created_at :datetime</text>
<text text-anchor="start" x="248.182" y="-21.3" font-family="Times,serif" font-size="14.00">updated_at :datetime</text>
<text text-anchor="start" x="248.182" y="-7.3" font-family="Times,serif" font-size="14.00">user_id :integer</text>
</g>
<!-- User -->
<g id="node3" class="node"><title>User</title>
<path fill="none" stroke="black" d="M281.41,-137.5C281.41,-137.5 461.966,-137.5 461.966,-137.5 467.966,-137.5 473.966,-143.5 473.966,-149.5 473.966,-149.5 473.966,-365.5 473.966,-365.5 473.966,-371.5 467.966,-377.5 461.966,-377.5 461.966,-377.5 281.41,-377.5 281.41,-377.5 275.41,-377.5 269.41,-371.5 269.41,-365.5 269.41,-365.5 269.41,-149.5 269.41,-149.5 269.41,-143.5 275.41,-137.5 281.41,-137.5"/>
<text text-anchor="middle" x="371.688" y="-362.3" font-family="Times,serif" font-size="14.00">User</text>
<polyline fill="none" stroke="black" points="269.41,-355.5 473.966,-355.5 "/>
<text text-anchor="start" x="277.41" y="-340.3" font-family="Times,serif" font-size="14.00">id :integer</text>
<text text-anchor="start" x="277.41" y="-326.3" font-family="Times,serif" font-size="14.00">email :string</text>
<text text-anchor="start" x="277.41" y="-312.3" font-family="Times,serif" font-size="14.00">encrypted_password :string</text>
<text text-anchor="start" x="277.41" y="-298.3" font-family="Times,serif" font-size="14.00">reset_password_token :string</text>
<text text-anchor="start" x="277.41" y="-284.3" font-family="Times,serif" font-size="14.00">reset_password_sent_at :datetime</text>
<text text-anchor="start" x="277.41" y="-270.3" font-family="Times,serif" font-size="14.00">remember_created_at :datetime</text>
<text text-anchor="start" x="277.41" y="-256.3" font-family="Times,serif" font-size="14.00">sign_in_count :integer</text>
<text text-anchor="start" x="277.41" y="-242.3" font-family="Times,serif" font-size="14.00">current_sign_in_at :datetime</text>
<text text-anchor="start" x="277.41" y="-228.3" font-family="Times,serif" font-size="14.00">last_sign_in_at :datetime</text>
<text text-anchor="start" x="277.41" y="-214.3" font-family="Times,serif" font-size="14.00">current_sign_in_ip :string</text>
<text text-anchor="start" x="277.41" y="-200.3" font-family="Times,serif" font-size="14.00">last_sign_in_ip :string</text>
<text text-anchor="start" x="277.41" y="-186.3" font-family="Times,serif" font-size="14.00">first_name :string</text>
<text text-anchor="start" x="277.41" y="-172.3" font-family="Times,serif" font-size="14.00">last_name :string</text>
<text text-anchor="start" x="277.41" y="-158.3" font-family="Times,serif" font-size="14.00">created_at :datetime</text>
<text text-anchor="start" x="277.41" y="-144.3" font-family="Times,serif" font-size="14.00">updated_at :datetime</text>
</g>
<!-- User&#45;&gt;Tweet -->
<g id="edge2" class="edge"><title>User&#45;&gt;Tweet</title>
<path fill="none" stroke="#5ee2ed" d="M331.409,-129.466C329.306,-122.836 327.25,-116.351 325.278,-110.132"/>
<ellipse fill="none" stroke="#5ee2ed" cx="332.668" cy="-133.438" rx="4.00001" ry="4.00001"/>
<polygon fill="#5ee2ed" stroke="#5ee2ed" points="325.277,-110.127 326.544,-99.2343 323.766,-105.361 322.254,-100.594 322.254,-100.594 322.254,-100.594 323.766,-105.361 317.965,-101.955 325.277,-110.127 325.277,-110.127"/>
</g>
<!-- ActiveRecord::Base -->
<g id="node4" class="node"><title>ActiveRecord::Base</title>
<ellipse fill="none" stroke="black" cx="306.688" cy="-450.5" rx="81.1422" ry="18"/>
<text text-anchor="middle" x="306.688" y="-446.3" font-family="Times,serif" font-size="14.00">ActiveRecord::Base</text>
</g>
<!-- ActiveRecord::Base&#45;&gt;Tweet -->
<g id="edge1" class="edge"><title>ActiveRecord::Base&#45;&gt;Tweet</title>
<path fill="none" stroke="black" d="M291.873,-432.693C280.871,-419.024 266.764,-398.676 260.688,-378 230.486,-275.235 234.521,-240.866 260.688,-137 263.776,-124.741 269.003,-112.327 274.851,-100.9"/>
</g>
<!-- ActiveRecord::Base&#45;&gt;User -->
<g id="edge3" class="edge"><title>ActiveRecord::Base&#45;&gt;User</title>
<path fill="none" stroke="black" d="M312.571,-432.213C317.102,-418.898 323.808,-399.192 331.094,-377.783"/>
</g>
</g>
</svg>
