<?xml version="1.0" encoding="UTF-8" standalone="no"?>
<!DOCTYPE svg PUBLIC "-//W3C//DTD SVG 1.1//EN"
 "http://www.w3.org/Graphics/SVG/1.1/DTD/svg11.dtd">
<!-- Generated by graphviz version 2.38.0 (20140413.2041)
 -->
<!-- Title: models_diagram Pages: 1 -->
<svg width="396pt" height="225pt"
 viewBox="0.00 0.00 396.01 225.00" xmlns="http://www.w3.org/2000/svg" xmlns:xlink="http://www.w3.org/1999/xlink">
<g id="graph0" class="graph" transform="scale(1 1) rotate(0) translate(4 221)">
<title>models_diagram</title>
<polygon fill="white" stroke="none" points="-4,4 -4,-221 392.009,-221 392.009,4 -4,4"/>
<!-- _diagram_info -->
<g id="node1" class="node"><title>_diagram_info</title>
<text text-anchor="start" x="8" y="-202.6" font-family="Times,serif" font-size="13.00">Models diagram</text>
<text text-anchor="start" x="8" y="-189.6" font-family="Times,serif" font-size="13.00">Date: Apr 26 2014 &#45; 12:32</text>
<text text-anchor="start" x="8" y="-176.6" font-family="Times,serif" font-size="13.00">Migration version: 20140404051215</text>
<text text-anchor="start" x="8" y="-163.6" font-family="Times,serif" font-size="13.00">Generated by RailRoady 1.1.1</text>
<text text-anchor="start" x="8" y="-150.6" font-family="Times,serif" font-size="13.00">http://railroady.prestonlee.com</text>
</g>
<!-- Tweet -->
<g id="node2" class="node"><title>Tweet</title>
<ellipse fill="none" stroke="black" cx="305.688" cy="-18" rx="31.6703" ry="18"/>
<text text-anchor="middle" x="305.688" y="-13.8" font-family="Times,serif" font-size="14.00">Tweet</text>
</g>
<!-- User -->
<g id="node3" class="node"><title>User</title>
<ellipse fill="none" stroke="black" cx="333.688" cy="-90" rx="27" ry="18"/>
<text text-anchor="middle" x="333.688" y="-85.8" font-family="Times,serif" font-size="14.00">User</text>
</g>
<!-- User&#45;&gt;Tweet -->
<g id="edge2" class="edge"><title>User&#45;&gt;Tweet</title>
<path fill="none" stroke="#0abe11" d="M323.999,-64.7779C321.505,-58.544 318.81,-51.8046 316.273,-45.4634"/>
<ellipse fill="none" stroke="#0abe11" cx="325.567" cy="-68.6971" rx="4.00001" ry="4.00001"/>
<polygon fill="#0abe11" stroke="#0abe11" points="316.184,-45.241 316.648,-34.2849 314.327,-40.5986 312.47,-35.9562 312.47,-35.9562 312.47,-35.9562 314.327,-40.5986 308.292,-37.6275 316.184,-45.241 316.184,-45.241"/>
</g>
<!-- ActiveRecord::Base -->
<g id="node4" class="node"><title>ActiveRecord::Base</title>
<ellipse fill="none" stroke="black" cx="306.688" cy="-180.5" rx="81.1422" ry="18"/>
<text text-anchor="middle" x="306.688" y="-176.3" font-family="Times,serif" font-size="14.00">ActiveRecord::Base</text>
</g>
<!-- ActiveRecord::Base&#45;&gt;Tweet -->
<g id="edge1" class="edge"><title>ActiveRecord::Base&#45;&gt;Tweet</title>
<path fill="none" stroke="black" d="M303.577,-162.378C300.112,-141.172 295.291,-103.936 297.688,-72 298.593,-59.9366 300.642,-46.4578 302.439,-36.1119"/>
</g>
<!-- ActiveRecord::Base&#45;&gt;User -->
<g id="edge3" class="edge"><title>ActiveRecord::Base&#45;&gt;User</title>
<path fill="none" stroke="black" d="M311.894,-162.436C316.705,-146.665 323.812,-123.37 328.589,-107.711"/>
</g>
</g>
</svg>
